<svg width="50" height="50" viewBox="0 0 50 50" fill="none" xmlns="http://www.w3.org/2000/svg">
  <rect width="50" height="50" fill="white"/>
  <rect x="5" y="5" width="15" height="15" fill="black"/>
  <rect x="30" y="5" width="15" height="15" fill="black"/>
  <rect x="5" y="30" width="15" height="15" fill="black"/>
  <rect x="10" y="10" width="5" height="5" fill="white"/>
  <rect x="35" y="10" width="5" height="5" fill="white"/>
  <rect x="10" y="35" width="5" height="5" fill="white"/>
  <rect x="30" y="30" width="5" height="5" fill="black"/>
  <rect x="40" y="30" width="5" height="5" fill="black"/>
  <rect x="30" y="40" width="5" height="5" fill="black"/>
  <rect x="40" y="40" width="5" height="5" fill="black"/>
  <rect x="22.5" y="5" width="5" height="5" fill="black"/>
  <rect x="22.5" y="15" width="5" height="5" fill="black"/>
  <rect x="22.5" y="25" width="5" height="5" fill="black"/>
  <rect x="5" y="22.5" width="5" height="5" fill="black"/>
  <rect x="15" y="22.5" width="5" height="5" fill="black"/>
  <rect x="35" y="22.5" width="5" height="5" fill="black"/>
</svg>