<svg width="32" height="32" viewBox="0 0 32 32" fill="none" xmlns="http://www.w3.org/2000/svg">
  <rect width="32" height="32" rx="8" fill="#1A56DB"/>
  <path d="M22 10.5858V21.4142C22 21.6893 21.7761 21.9142 21.5 21.9142C20.1193 21.9142 19 23.0335 19 24.4142C19 24.6893 18.7761 24.9142 18.5 24.9142H13.5C13.2239 24.9142 13 24.6903 13 24.4142C13 23.0335 11.8807 21.9142 10.5 21.9142C10.2239 21.9142 10 21.6903 10 21.4142V10.5858C10 10.3107 10.2239 10.0858 10.5 10.0858C11.8807 10.0858 13 8.96648 13 7.58579C13 7.31066 13.2239 7.08579 13.5 7.08579H18.5C18.7761 7.08579 19 7.30972 19 7.58579C19 8.96648 20.1193 10.0858 21.5 10.0858C21.7761 10.0858 22 10.3097 22 10.5858Z" stroke="white" stroke-width="1.5"/>
  <path d="M13 13L19 13" stroke="white" stroke-width="1.5" stroke-linecap="round"/>
  <path d="M13 17L19 17" stroke="white" stroke-width="1.5" stroke-linecap="round"/>
</svg>